<svg id="Ebene_1" data-name="Ebene 1" xmlns="http://www.w3.org/2000/svg" viewBox="0 0 1694.08 1695.95"><defs><style>.cls-1{fill:#fdfdfd;}.cls-2{fill:#374351;}</style></defs><title>ihp-logo</title><g id="Ebene_3_Kopie_2" data-name="Ebene 3 Kopie 2"><rect class="cls-1" width="1694.08" height="1695.95"/></g><g id="Ebene_1_Kopie_2_Kopie_2_Kopie" data-name="Ebene 1 Kopie 2 Kopie 2 Kopie"><path class="cls-2" d="M112.38,844a12.4,12.4,0,0,0,0,17.52l241,241a12.38,12.38,0,0,0,17.52,0L612,861.5A12.38,12.38,0,0,0,612,844l-241-241a12.38,12.38,0,0,0-17.52,0Z" transform="translate(-3.6 -1.52)"/><path class="cls-2" d="M780.27,191.8a12.38,12.38,0,0,0-17.52,0h0l-241,241a12.39,12.39,0,0,0,0,17.52h0l241,241.06a12.38,12.38,0,0,0,17.52,0h0l241-241a12.38,12.38,0,0,0,0-17.52h0Z" transform="translate(-3.6 -1.52)"/><rect class="cls-2" x="588.67" y="1074.59" width="365.65" height="365.64" rx="12.39" transform="translate(-666.75 912.3) rotate(-45)"/><path class="cls-2" d="M1391.34,520.52l-1.6,507-122.67-.38.15-47.53Q1252,1004.4,1223,1018.4a142.4,142.4,0,0,1-63.36,13.95q-44.79-.12-79.85-23.31t-54.52-64.93q-19.51-41.74-19.34-96.17.18-53.75,19.94-95t55-63.56q35.21-22.3,80-22.15a135.89,135.89,0,0,1,60.92,14q27.87,13.86,44.32,37.33l.62-198.41Zm-141.79,396q18-23,18.11-66.43.13-42-18.05-65.16T1199,761.73q-33.76-.11-51.74,22.23t-18.1,64.35q-.15,43.38,18,67.24t51.26,23.92Q1231.57,939.56,1249.55,916.55Z" transform="translate(-3.6 -1.52)"/><path class="cls-2" d="M1462.31,506.27l130.21.39-.35,112.3L1462,618.55Zm1.83,521.52,1.08-350,124.7.38-1.09,350Z" transform="translate(-3.6 -1.52)"/></g></svg>