<?xml version="1.0" encoding="UTF-8"?>
<svg width="32px" height="32px" viewBox="0 0 32 32" version="1.1" xmlns="http://www.w3.org/2000/svg" xmlns:xlink="http://www.w3.org/1999/xlink">
    <title>Favicon 32</title>
    <g id="Favicon-32" stroke="none" stroke-width="1" fill="none" fill-rule="evenodd">
        <rect id="Rectangle" fill="#FFFFFF" x="0" y="0" width="32" height="32" rx="4"></rect>
        <g id="Group" transform="translate(2.800000, 2.000000)">
            <path d="M10.1470278,0 L13.9411501,0 C14.3297788,2.75276295e-17 14.6832109,0.225159361 14.8474549,0.577375458 L26.5053573,25.5773755 C26.7387664,26.0779138 26.5222153,26.6728958 26.021677,26.9063049 C25.8893328,26.9680191 25.7450785,27 25.5990524,27 L21.2939645,27 C20.8992095,27 20.5413959,26.7677708 20.3806394,26.4072311 L9.23370264,1.40723111 C9.00879512,0.902815555 9.23538114,0.311582381 9.73979669,0.0866748518 C9.86795577,0.029531606 10.0067064,-3.07290281e-16 10.1470278,0 Z" id="Path-4" fill="#026B86"></path>
            <path d="M9.50471472,12.65625 L13.420076,12.65625 C13.9723607,12.65625 14.420076,13.1039653 14.420076,13.65625 C14.420076,13.8376972 14.3707077,14.0157252 14.2772608,14.171259 L6.86095777,26.515009 C6.68016414,26.8159232 6.35482246,27 6.00377299,27 L1.80266247,27 C1.25037772,27 0.802662472,26.5522847 0.802662472,26 C0.802662472,25.8128337 0.855189686,25.629424 0.954269272,25.4706334 L8.65632152,13.1268834 C8.8389822,12.834141 9.15965955,12.65625 9.50471472,12.65625 Z" id="Path-2" fill="#063642"></path>
        </g>
    </g>
</svg>